<?xml version="1.0" standalone="no"?>
<!DOCTYPE svg PUBLIC "-//W3C//DTD SVG 20010904//EN"
 "http://www.w3.org/TR/2001/REC-SVG-20010904/DTD/svg10.dtd">
<svg version="1.0" xmlns="http://www.w3.org/2000/svg"
 width="512.000000pt" height="512.000000pt" viewBox="0 0 512.000000 512.000000"
 preserveAspectRatio="xMidYMid meet">
<metadata>
Created by potrace 1.14, written by Peter Selinger 2001-2017
</metadata>
<g transform="translate(0.000000,512.000000) scale(0.100000,-0.100000)"
fill="#000000" stroke="none">
<path d="M2772 5103 c127 -149 168 -200 231 -296 274 -408 446 -901 510 -1454
l4 -33 -1193 0 c-1120 0 -1193 -1 -1213 -17 -12 -10 -24 -35 -27 -55 -5 -30
-2 -41 19 -62 l26 -26 1201 0 1200 0 1 -62 c0 -35 3 -83 6 -106 3 -24 2 -68
-2 -98 l-6 -54 -1189 0 c-850 0 -1196 -3 -1213 -11 -49 -22 -60 -83 -23 -126
l24 -28 1201 -3 1200 -2 -5 -48 c-3 -26 -11 -94 -17 -152 l-12 -105 -1183 -5
-1184 -5 -24 -28 c-30 -36 -30 -68 0 -104 l24 -28 1038 -5 1038 -5 -43 -28
c-58 -38 -203 -179 -247 -239 l-36 -48 -874 0 -875 0 -24 -25 c-14 -13 -25
-34 -25 -45 0 -29 26 -76 45 -84 9 -3 385 -6 836 -6 450 0 819 -1 819 -2 0 -2
-13 -35 -29 -74 -68 -166 -99 -375 -81 -546 11 -110 40 -244 65 -305 l16 -37
-48 -49 c-27 -26 -78 -73 -114 -103 l-67 -54 -967 2 c-944 3 -967 3 -981 22
-12 17 -14 316 -14 2073 l0 2053 -218 0 c-181 0 -221 -3 -240 -16 l-22 -15 0
-2258 c0 -1934 2 -2260 14 -2277 14 -19 46 -19 1658 -24 l1643 -5 66 -27 c157
-64 416 -87 600 -53 534 99 920 518 979 1064 28 257 -50 560 -201 782 -59 88
-189 221 -284 292 -80 59 -243 144 -322 168 l-43 12 0 1033 0 1033 -22 24
c-13 14 -182 176 -376 361 l-352 336 -342 0 c-324 0 -340 -1 -326 -17z m1562
-3454 c18 -15 26 -30 26 -53 0 -28 -41 -82 -296 -387 -163 -195 -310 -369
-327 -386 -56 -60 -73 -53 -269 113 -95 80 -179 158 -186 173 -26 52 23 112
80 98 14 -4 85 -58 159 -121 74 -64 137 -115 141 -116 4 0 135 153 290 339
156 187 292 344 303 349 31 16 50 14 79 -9z"/>
<path d="M1380 4524 c-14 -3 -43 -9 -65 -15 -163 -45 -267 -264 -224 -471 27
-128 105 -230 204 -267 46 -17 79 -21 181 -21 119 0 126 1 149 25 33 32 33 78
0 110 -23 24 -31 25 -135 25 -118 0 -146 8 -187 52 -37 39 -54 95 -55 175 0
60 5 84 26 127 39 80 60 90 194 96 104 5 115 7 133 29 21 25 25 71 9 101 -18
33 -128 49 -230 34z"/>
<path d="M1774 4522 c-32 -5 -58 -39 -58 -75 1 -31 191 -593 220 -649 18 -34
43 -48 86 -48 71 1 73 6 227 456 77 225 82 244 70 270 -8 15 -28 33 -45 40
-26 11 -36 10 -64 -4 -32 -16 -38 -28 -109 -234 -41 -120 -78 -218 -81 -218
-4 0 -37 89 -75 198 -37 108 -74 209 -81 223 -14 29 -55 47 -90 41z"/>
<path d="M1111 1373 c-12 -10 -24 -35 -27 -55 -5 -30 -2 -41 19 -62 l26 -26
534 0 534 0 21 23 c30 32 29 81 -3 112 l-24 25 -529 0 c-490 0 -531 -1 -551
-17z"/>
</g>
</svg>
