<?xml version="1.0" standalone="no"?>
<!DOCTYPE svg PUBLIC "-//W3C//DTD SVG 20010904//EN"
 "http://www.w3.org/TR/2001/REC-SVG-20010904/DTD/svg10.dtd">
<svg version="1.0" xmlns="http://www.w3.org/2000/svg"
 width="512.000000pt" height="512.000000pt" viewBox="0 0 512.000000 512.000000"
 preserveAspectRatio="xMidYMid meet">
<metadata>
Created by potrace 1.14, written by Peter Selinger 2001-2017
</metadata>
<g transform="translate(0.000000,512.000000) scale(0.100000,-0.100000)"
fill="#000000" stroke="none">
<path d="M579 4576 c-2 -2 -18 -6 -36 -9 -54 -9 -155 -46 -206 -76 -157 -92
-265 -233 -313 -408 l-24 -88 3 -1450 c1 -797 6 -1463 10 -1478 38 -141 90
-232 191 -333 105 -104 204 -155 356 -184 70 -13 1550 -12 1588 1 21 7 37 23
49 50 l18 38 120 1 121 0 12 -34 c12 -32 59 -66 92 -66 33 0 80 34 92 66 l12
34 121 0 121 0 12 -34 c25 -69 -7 -66 844 -66 758 1 816 3 903 34 6 2 13 4 17
5 24 4 150 79 193 114 103 84 186 213 221 342 18 67 19 127 19 1535 l0 1465
-23 70 c-84 252 -281 423 -537 465 -48 8 -3968 13 -3976 6z"/>
</g>
</svg>
